<svg xmlns="http://www.w3.org/2000/svg" width="35.94" height="42.63" viewBox="0 0 9.51 11.28">
    <g transform="translate(-84.45 -187.88)">
        <path d="M84.83 188.27h7.14l1.6 1.33v8.46h-8.74z" fill="#fff" stroke-width=".77" stroke="#0c322c"/>
        <path d="M86.15 190.13h5.03m-5.03 1.58h5.82m-5.82 1.59h5.82m-5.82 2.12h2.65" fill="#90ebcd" stroke-width=".77" stroke="#0c322c"/>
        <g transform="translate(89.63 195.03) scale(.37734)" stroke="#30ba78" stroke-width="1.19">
            <path d="M4.08.35v.98a4.16 4.23 0 0 0-.88.38L2.35.99.82 2.79l.75.64a4.16 4.23 0 0 0-.32.85H.33v2.37h.97a4.16 4.23 0 0 0 .32.77L.9 8.2l1.75 1.6.63-.7a4.16 4.23 0 0 0 .8.34v.92h2.36v-.92a4.16 4.23 0 0 0 .9-.4l.76.74L9.77 8.1l-.8-.79a4.16 4.23 0 0 0 .26-.65h1.01V4.28h-.96a4.16 4.23 0 0 0-.33-.85l.73-.63L8.13 1l-.81.7a4.16 4.23 0 0 0-.87-.37V.35Z" fill="#fff"/>
            <ellipse cx="5.29" cy="5.36" rx="2.24" ry="2.22" fill="#fff"/>
        </g>
    </g>
</svg>

