<svg xmlns="http://www.w3.org/2000/svg" width="108.58" height="98.64" viewBox="0 0 28.73 26.1">
    <g transform="translate(-13.6 -93.54)">
        <rect class="cls-2" x="18.59" y="94.01" width="19.01" height="14.06" fill="#fff" stroke="#0c322c" stroke-width=".95"/>
        <rect class="cls-2" x="20.38" y="95.78" width="15.5" height="10.53" fill="#fff" stroke="#0c322c" stroke-width=".95"/>
        <line class="cls-3" x1="23.34" y1="103.86" x2="23.34" y2="101.48" fill="none" stroke="#0c322c" stroke-width=".95"/>
        <line class="cls-3" x1="25.72" y1="103.86" x2="25.72" y2="99.11" fill="none" stroke="#0c322c" stroke-width=".95"/>
        <line class="cls-3" x1="28.1" y1="103.86" x2="28.1" y2="100.31" fill="none" stroke="#0c322c" stroke-width=".95"/>
        <line class="cls-3" x1="30.47" y1="103.86" x2="30.47" y2="99.11" fill="none" stroke="#0c322c" stroke-width=".95"/>
        <line class="cls-3" x1="32.85" y1="103.86" x2="32.85" y2="98.06" fill="none" stroke="#0c322c" stroke-width=".95"/>
        <path d="m18.05 111.23-3.97 7.93h27.78l-3.97-7.93H18.05" fill="#fff" stroke="#0c322c" stroke-width=".95" stroke-linecap="round" stroke-linejoin="round" paint-order="fill markers stroke"/>
        <rect width="5.29" height="2.65" x="25.46" y="108.58" fill="#0c322c" stroke="#0c322c" stroke-width=".95" stroke-linecap="round" paint-order="fill markers stroke"/>
        <path d="m19.37 116.51-.26 1.33h1.32l.26-1.32zm2.12 0v1.33h5.29v-1.32zm6.08 0v1.33h1.32v-1.32zm3.97 0v1.33h1.32v-1.32zm2.12 0v1.33h1.32v-1.32zm2.11 0 .27 1.33h1.32l-.26-1.32zm2.12 0 .27 1.33h1.58l-.53-1.32zm-19.58 0-.26 1.33h-1.6l.54-1.32zm1.72-2.1-.23 1.2h1.19l.24-1.2zm7.73 0v1.2h1.2v-1.2zm3.58 0v1.2h1.2v-1.2zm1.91 0v1.2h1.2v-1.2zm1.91 0 .24 1.2h1.2l-.24-1.2zm1.91 0 .24 1.2h1.43l-.47-1.2zm-17.66 0-.25 1.2h-1.43l.48-1.2zm2.47 0v1.2h1.19v-1.2zm3.92 0v1.2H27v-1.2zm-1.96 0v1.2h1.2v-1.2zm-2.99-1.86-.22 1.08h1.08l.21-1.08zm6.96 0v1.08h1.08v-1.08zm3.24 0v1.08h1.08v-1.08zm1.72 0v1.08h1.08v-1.08zm1.73 0 .21 1.08h1.08l-.21-1.08zm1.72 0 .22 1.08h1.29l-.43-1.08zm-15.95 0-.21 1.08h-1.3l.44-1.08zm2.24 0v1.08h1.07v-1.08zm3.54 0v1.08h1.07v-1.08zm-1.77 0v1.08h1.07v-1.08z" fill="#0c322c"/>
    </g>
</svg>

