<?xml version="1.0" encoding="UTF-8" standalone="no"?>
<svg
   xmlns:dc="http://purl.org/dc/elements/1.1/"
   xmlns:cc="http://creativecommons.org/ns#"
   xmlns:rdf="http://www.w3.org/1999/02/22-rdf-syntax-ns#"
   xmlns:svg="http://www.w3.org/2000/svg"
   xmlns="http://www.w3.org/2000/svg"
   xmlns:sodipodi="http://sodipodi.sourceforge.net/DTD/sodipodi-0.dtd"
   xmlns:inkscape="http://www.inkscape.org/namespaces/inkscape"
   width="40"
   height="40"
   viewBox="0 0 10.583333 10.583334"
   version="1.1"
   id="svg1224"
   sodipodi:docname="ha_corosync.svg"
   inkscape:version="1.0.1 (3bc2e813f5, 2020-09-07)">
  <sodipodi:namedview
     pagecolor="#ffffff"
     bordercolor="#666666"
     borderopacity="1"
     objecttolerance="10"
     gridtolerance="10"
     guidetolerance="10"
     inkscape:pageopacity="0"
     inkscape:pageshadow="2"
     inkscape:window-width="863"
     inkscape:window-height="480"
     id="namedview5898"
     showgrid="false"
     inkscape:zoom="5.9"
     inkscape:cx="20"
     inkscape:cy="20"
     inkscape:window-x="0"
     inkscape:window-y="0"
     inkscape:window-maximized="0"
     inkscape:current-layer="svg1224" />
  <defs
     id="defs1218">
    <marker
       style="overflow:visible"
       id="marker5133"
       refX="0"
       refY="0"
       orient="auto"
       inkscape:stockid="DotM"
       inkscape:isstock="true">
      <path
         transform="matrix(0.4,0,0,0.4,2.96,0.4)"
         style="fill:#0c322c;fill-opacity:1;fill-rule:evenodd;stroke:#0c322c;stroke-width:1pt;stroke-opacity:1"
         d="m -2.5,-1 c 0,2.76 -2.24,5 -5,5 -2.76,0 -5,-2.24 -5,-5 0,-2.76 2.24,-5 5,-5 2.76,0 5,2.24 5,5 z"
         id="path5131" />
    </marker>
    <marker
       markerWidth="3.0606589"
       markerHeight="4.7071061"
       refX="1.5303295"
       refY="2.3535531"
       orient="auto"
       id="marker8836481-0-2"
       inkscape:stockid="marker8836481">
      <path
         style="fill:#ffffff;fill-opacity:0;stroke:#0c322c;stroke-width:0.999999px;stroke-linecap:butt;stroke-linejoin:miter;stroke-opacity:1"
         d="M 0.35355295,0.35355295 2.3535531,2.3535531 0.35355295,4.3535533"
         id="path2261-6-9" />
    </marker>
    <marker
       style="overflow:visible"
       id="marker5133-1"
       refX="0"
       refY="0"
       orient="auto"
       inkscape:stockid="DotM"
       inkscape:isstock="true">
      <path
         transform="matrix(0.4,0,0,0.4,2.96,0.4)"
         style="fill:#0c322c;fill-opacity:1;fill-rule:evenodd;stroke:#0c322c;stroke-width:1pt;stroke-opacity:1"
         d="m -2.5,-1 c 0,2.76 -2.24,5 -5,5 -2.76,0 -5,-2.24 -5,-5 0,-2.76 2.24,-5 5,-5 2.76,0 5,2.24 5,5 z"
         id="path5131-9" />
    </marker>
    <marker
       markerWidth="3.0606589"
       markerHeight="4.7071061"
       refX="1.5303295"
       refY="2.3535531"
       orient="auto"
       id="marker8836481-0-2-4"
       inkscape:stockid="marker8836481">
      <path
         style="fill:#ffffff;fill-opacity:0;stroke:#0c322c;stroke-width:0.999999px;stroke-linecap:butt;stroke-linejoin:miter;stroke-opacity:1"
         d="M 0.35355295,0.35355295 2.3535531,2.3535531 0.35355295,4.3535533"
         id="path2261-6-9-7" />
    </marker>
    <marker
       style="overflow:visible"
       id="marker5133-1-4"
       refX="0"
       refY="0"
       orient="auto"
       inkscape:stockid="DotM"
       inkscape:isstock="true">
      <path
         transform="matrix(0.4,0,0,0.4,2.96,0.4)"
         style="fill:#0c322c;fill-opacity:1;fill-rule:evenodd;stroke:#0c322c;stroke-width:1pt;stroke-opacity:1"
         d="m -2.5,-1 c 0,2.76 -2.24,5 -5,5 -2.76,0 -5,-2.24 -5,-5 0,-2.76 2.24,-5 5,-5 2.76,0 5,2.24 5,5 z"
         id="path5131-9-5" />
    </marker>
    <marker
       markerWidth="3.0606589"
       markerHeight="4.7071061"
       refX="1.5303295"
       refY="2.3535531"
       orient="auto"
       id="marker8836481-0-2-4-0"
       inkscape:stockid="marker8836481">
      <path
         style="fill:#ffffff;fill-opacity:0;stroke:#0c322c;stroke-width:0.999999px;stroke-linecap:butt;stroke-linejoin:miter;stroke-opacity:1"
         d="M 0.35355295,0.35355295 2.3535531,2.3535531 0.35355295,4.3535533"
         id="path2261-6-9-7-3" />
    </marker>
  </defs>
  <metadata
     id="metadata1221">
    <rdf:RDF>
      <cc:Work
         rdf:about="">
        <dc:format>image/svg+xml</dc:format>
        <dc:type
           rdf:resource="http://purl.org/dc/dcmitype/StillImage" />
        <dc:title />
      </cc:Work>
    </rdf:RDF>
  </metadata>
  <g
     id="g5844"
     transform="matrix(0.63024941,0,0,0.63024941,26.526974,-20.254653)">
    <path
       style="fill:none;stroke:#0c322c;stroke-width:0.79375;stroke-linecap:square;stroke-linejoin:miter;stroke-miterlimit:4;stroke-dasharray:none;stroke-opacity:1;marker-start:url(#marker5133);marker-end:url(#marker8836481-0-2)"
       d="m -27.650682,42.815923 c 0.635916,-4.220384 -0.979556,-6.475865 -3.936416,-7.754153"
       id="path2233-2-3"
       sodipodi:nodetypes="cc" />
    <path
       style="fill:none;stroke:#0c322c;stroke-width:0.79375;stroke-linecap:square;stroke-linejoin:miter;stroke-miterlimit:4;stroke-dasharray:none;stroke-opacity:1;marker-start:url(#marker5133-1);marker-end:url(#marker8836481-0-2-4)"
       d="m -35.398036,34.512643 c -3.875168,1.788601 -4.871371,4.377912 -4.313921,7.550653"
       id="path2233-2-3-8"
       sodipodi:nodetypes="cc" />
    <path
       style="fill:none;stroke:#0c322c;stroke-width:0.79375;stroke-linecap:square;stroke-linejoin:miter;stroke-miterlimit:4;stroke-dasharray:none;stroke-opacity:1;marker-start:url(#marker5133-1-4);marker-end:url(#marker8836481-0-2-4-0)"
       d="m -38.29031,45.93163 c 3.431842,2.537417 6.18115,2.165587 8.694796,0.150986"
       id="path2233-2-3-8-6"
       sodipodi:nodetypes="cc" />
  </g>
</svg>
