<?xml version="1.0" encoding="UTF-8" standalone="no"?>
<svg
   xmlns:dc="http://purl.org/dc/elements/1.1/"
   xmlns:cc="http://creativecommons.org/ns#"
   xmlns:rdf="http://www.w3.org/1999/02/22-rdf-syntax-ns#"
   xmlns:svg="http://www.w3.org/2000/svg"
   xmlns="http://www.w3.org/2000/svg"
   xmlns:sodipodi="http://sodipodi.sourceforge.net/DTD/sodipodi-0.dtd"
   xmlns:inkscape="http://www.inkscape.org/namespaces/inkscape"
   width="21.155676"
   height="20.556175"
   viewBox="0 0 5.5974393 5.4388213"
   version="1.1"
   id="svg1723"
   inkscape:version="1.0.1 (3bc2e813f5, 2020-09-07)"
   sodipodi:docname="key.svg">
  <defs
     id="defs1717" />
  <sodipodi:namedview
     id="base"
     pagecolor="#ffffff"
     bordercolor="#666666"
     borderopacity="1.0"
     inkscape:pageopacity="0.0"
     inkscape:pageshadow="2"
     inkscape:zoom="39.452865"
     inkscape:cx="10.577838"
     inkscape:cy="10.278088"
     inkscape:document-units="mm"
     inkscape:current-layer="layer1"
     inkscape:document-rotation="0"
     showgrid="false"
     fit-margin-top="0"
     fit-margin-left="0"
     fit-margin-right="0"
     fit-margin-bottom="0"
     units="px"
     inkscape:window-width="1442"
     inkscape:window-height="995"
     inkscape:window-x="476"
     inkscape:window-y="35"
     inkscape:window-maximized="0" />
  <metadata
     id="metadata1720">
    <rdf:RDF>
      <cc:Work
         rdf:about="">
        <dc:format>image/svg+xml</dc:format>
        <dc:type
           rdf:resource="http://purl.org/dc/dcmitype/StillImage" />
        <dc:title></dc:title>
      </cc:Work>
    </rdf:RDF>
  </metadata>
  <g
     inkscape:label="Layer 1"
     inkscape:groupmode="layer"
     id="layer1"
     transform="translate(-115.88577,-100.09006)">
    <path
       d="m 116.88833,101.77498 c 0,-0.37288 0.30268,-0.67627 0.67557,-0.67627 0.37289,0 0.67592,0.30339 0.67592,0.67627 0,0.37254 -0.30303,0.67557 -0.67592,0.67557 -0.37289,0 -0.67557,-0.30303 -0.67557,-0.67557 z m 2.68746,1.18251 0.10372,-0.10407 c 0.0399,-0.0399 0.0399,-0.10477 0,-0.14499 l -0.50201,-0.502 c 0.0409,-0.12065 0.10972,-0.38947 0.0529,-0.7172 -0.0568,-0.33055 -0.25858,-0.93098 -0.97049,-1.24072 -0.47061,-0.2039 -0.92393,-0.21131 -1.34973,-0.0205 -0.51752,0.23142 -0.83361,0.69145 -0.91122,0.9271 -0.15875,0.47943 -0.28822,1.37901 0.61842,2.01472 0.53904,0.37782 1.15817,0.27269 1.35396,0.22613 l 0.50659,0.50659 c 0.0399,0.0406 0.10548,0.0406 0.14499,0 l 0.17745,-0.1771 0.45614,0.45614 c 0.0194,0.0194 0.0452,0.03 0.0727,0.03 v 0 l 0.25682,-2.9e-4 0.0247,0.51893 c 10e-4,0.0275 0.0138,0.0533 0.0342,0.0716 0.0205,0.0183 0.0498,0.0254 0.0744,0.0258 l 0.54257,-0.0328 0.0173,0.39123 c 0.003,0.0533 0.0452,0.0963 0.0988,0.0981 l 0.22296,0.008 0.19649,0.20532 c 0.019,0.0201 0.0462,0.0314 0.0741,0.0314 0.004,0 0.008,0 0.0116,-5.5e-4 l 0.50906,-0.0586 c 0.0519,-0.006 0.091,-0.0501 0.091,-0.10196 v -0.46037 c 0,-0.0271 -0.0109,-0.0533 -0.03,-0.0728 z"
       style="fill:#0c322c;fill-opacity:1;fill-rule:nonzero;stroke:none;stroke-width:0.282223"
       id="path6386" />
  </g>
</svg>
