<?xml version="1.0" encoding="UTF-8" standalone="no"?>
<svg
   xmlns:dc="http://purl.org/dc/elements/1.1/"
   xmlns:cc="http://creativecommons.org/ns#"
   xmlns:rdf="http://www.w3.org/1999/02/22-rdf-syntax-ns#"
   xmlns:svg="http://www.w3.org/2000/svg"
   xmlns="http://www.w3.org/2000/svg"
   width="40"
   height="40"
   viewBox="0 0 10.583333 10.583334"
   version="1.1"
   id="svg8">
  <defs
     id="defs2" />
  <metadata
     id="metadata5">
    <rdf:RDF>
      <cc:Work
         rdf:about="">
        <dc:format>image/svg+xml</dc:format>
        <dc:type
           rdf:resource="http://purl.org/dc/dcmitype/StillImage" />
        <dc:title></dc:title>
      </cc:Work>
    </rdf:RDF>
  </metadata>
  <g
     id="layer1">
    <g
       id="g1977"
       transform="translate(0.82100362,0.20812797)">
      <path
         class="st0"
         d="m 7.3493147,3.1720399 c 0,-1.6718236 -1.3612374,-3.02530716 -3.0356458,-3.01281482 C 2.6521838,0.17171759 1.3236851,1.5484626 1.3236851,3.2099479 v 2.0263484 c 0,0.4174174 0.1516315,0.8206194 0.4264636,1.1346518 l 1.167821,1.3345297 c 0.3273864,0.3739095 0.7999425,0.5884337 1.2966219,0.5884337 h 0.2438165 c 0.4966794,0 0.9696663,-0.2145242 1.2966219,-0.5884337 L 6.9228511,6.3709481 C 7.1976833,6.0569157 7.3493147,5.6537137 7.3493147,5.2362963 Z"
         id="path1277"
         style="fill:#ffffff;stroke:#0c322c;stroke-width:0.732312;stroke-miterlimit:10" />
      <line
         class="st0"
         x1="2.4622862"
         y1="7.2698021"
         x2="2.4622862"
         y2="10.371356"
         id="line1279"
         style="fill:none;stroke:#0c322c;stroke-width:0.732312;stroke-miterlimit:10" />
      <line
         class="st0"
         x1="6.1243196"
         y1="7.2698021"
         x2="6.1243196"
         y2="10.371356"
         id="line1281"
         style="fill:none;stroke:#0c322c;stroke-width:0.732312;stroke-miterlimit:10" />
      <path
         style="fill:none;stroke:#0c322c;stroke-width:0.529167;stroke-linecap:butt;stroke-linejoin:miter;stroke-miterlimit:4;stroke-dasharray:none;stroke-opacity:1"
         d="m 2.3539964,2.966872 c 0.8774095,-0.4461932 1.7707363,-0.246762 2.3812499,0 l -0.7937499,2.1166667 1.0583333,0"
         id="path1992" />
      <path
         style="fill:none;stroke:#0c322c;stroke-width:0.529167;stroke-linecap:butt;stroke-linejoin:miter;stroke-miterlimit:4;stroke-dasharray:none;stroke-opacity:1"
         d="m 3.5375925,6.4064554 c 0.493236,0.3067867 1.0119132,0.3963492 1.5874999,0"
         id="path1994" />
    </g>
  </g>
</svg>
